# xmcd
#
# Track frame offsets:
#	182
#	17600
#	37397
#	46722
#	61592
#	77915
#	90140
#	107732
#	123307
#	141777
#	159487
#
# Disc length: 2333 seconds
#
# Revision: 0
# Processed by: cddbd v1.4PL0 Copyright (c) Steve Scherf et al.
# Submitted via: audiograbber 1.81.03
#
DISCID=7f091b0b
DTITLE=A Christmas Album - No Wrapping Required (A Christmas Album)
DYEAR=2001
DGENRE=Christmas
TTITLE0=Ricky Skaggs - The Reunion Song
TTITLE1=Sonya Isaacs - The Christmas Song (Chestnuts Roasting on an Open Fire)
TTITLE2=Aaron Tippin - Jingle Bell Rock
TTITLE3=SHeDAiSY - That's What I Want For Christmas
TTITLE4=Kevin Denney - White Christmas
TTITLE5=Sonya Isaacs - What Do You See?
TTITLE6=Rascal Flatts - God Rest Ye Merry Gentlemen
TTITLE7=Sonya Isaacs - Mary, Did You Know?
TTITLE8=Porter Wagoner - Tennessee Christmas
TTITLE9=Kree with special guest Rosie O'Donnell - Do You Hear What I Hear?
TTITLE10=Kortney Kayle - Have Yourself a Merry Little Christmas
EXTD=Lryic Street Records, (http://www.lyricstreet.com)
EXTT0=
EXTT1=
EXTT2=
EXTT3=
EXTT4=
EXTT5=
EXTT6=
EXTT7=
EXTT8=
EXTT9=
EXTT10=
PLAYORDER=
